<?xml version="1.0" encoding="UTF-8" standalone="no"?>
<!DOCTYPE svg PUBLIC "-//W3C//DTD SVG 1.1//EN" "http://www.w3.org/Graphics/SVG/1.1/DTD/svg11.dtd">
<svg width="100%" height="100%" viewBox="0 0 512 512" version="1.1" xmlns="http://www.w3.org/2000/svg" xmlns:xlink="http://www.w3.org/1999/xlink" xml:space="preserve" xmlns:serif="http://www.serif.com/" style="fill-rule:evenodd;clip-rule:evenodd;stroke-linejoin:round;stroke-miterlimit:2;">
    <path d="M438.891,91.989L310.891,15.189C277.168,-5.11 234.832,-5.11 201.109,15.189L73.109,91.989C41.102,111.331 21.441,146.069 21.333,183.467L21.333,328.533C21.441,365.931 41.102,400.669 73.109,420.011L201.109,496.811C234.829,517.12 277.171,517.12 310.891,496.811L438.891,420.011C470.898,400.669 490.559,365.931 490.667,328.533L490.667,183.467C490.559,146.069 470.898,111.331 438.891,91.989ZM64.107,179.989L122.411,214.955L64,300.587C64,300.587 64,181.141 64.107,179.989ZM256.107,65.259L326.4,192L185.6,192L256.107,65.259ZM448.107,298.176L389.867,214.869L448,179.989L448,298.176L448.107,298.176ZM187.84,234.667L324.267,234.667L256,343.744L187.84,234.667ZM85.717,344.469L148.501,252.267L213.483,356.267L85.717,344.469ZM363.669,252.011L428.245,344.427L298.667,355.904L363.669,252.011ZM417.003,128.576C422.296,131.76 427.096,135.698 431.253,140.267L367.637,178.368L301.504,59.349L417.003,128.576ZM95.168,128.576L210.517,59.328L144.427,178.411L80.832,140.267C84.989,135.698 89.79,131.76 95.083,128.576L95.168,128.576ZM104.555,389.056L234.667,401.067L234.667,465.707C230.633,464.268 226.752,462.432 223.083,460.224L104.555,389.056ZM289.003,460.203C285.333,462.41 281.453,464.247 277.419,465.685L277.419,400.619L407.552,389.099L289.003,460.203Z" style="fill:rgb(241,247,246);fill-rule:nonzero;"/>
</svg>
